<svg version="1.1" id="Layer_1" xmlns="http://www.w3.org/2000/svg" xmlns:xlink="http://www.w3.org/1999/xlink" x="0px" y="0px"
	 width="100%" viewBox="0 0 169 187" enable-background="new 0 0 169 187" xml:space="preserve">
<!-- <path fill="#233B77" opacity="1.000000" stroke="none" 
	d="
M99.000000,188.000000 
	C66.000000,188.000000 33.500004,188.000000 1.000004,188.000000 
	C1.000003,125.666672 1.000003,63.333344 1.000001,1.000013 
	C57.333324,1.000008 113.666649,1.000008 169.999969,1.000004 
	C169.999985,63.333317 169.999985,125.666634 170.000000,187.999969 
	C146.500000,188.000000 123.000000,188.000000 99.000000,188.000000 
M48.173119,149.291962 
	C48.738792,148.843155 49.304466,148.394363 50.599113,147.929337 
	C54.627979,144.944550 58.783028,142.110596 62.621891,138.898712 
	C64.100639,137.661484 64.860397,135.564911 66.240097,133.450043 
	C66.656830,133.177826 67.073563,132.905609 68.239990,132.666809 
	C72.359756,131.440964 76.568810,129.518829 77.239136,125.101463 
	C77.984802,120.187607 77.175301,115.037766 76.918877,109.350655 
	C76.948341,108.918434 76.977806,108.486214 77.746788,107.993553 
	C80.125732,108.319839 82.682755,108.195999 84.851372,109.053932 
	C92.385925,112.034737 99.283897,109.674034 101.295624,102.909630 
	C101.295624,102.909630 101.618988,102.776146 102.357101,102.771317 
	C104.575920,100.513878 106.794739,98.256432 109.220642,95.536148 
	C109.508698,95.373055 109.796745,95.209961 110.801086,95.020340 
	C114.277039,93.354080 118.143692,92.179321 121.085388,89.840958 
	C122.908836,88.391479 123.328133,85.175575 124.805260,82.229965 
	C126.525620,80.820648 128.245972,79.411331 130.672424,77.960602 
	C131.336929,77.141449 132.001450,76.322296 132.915619,75.183136 
	C133.113037,74.989746 133.343658,74.851959 134.281845,74.704597 
	C134.822052,74.070793 135.362274,73.436981 136.330109,72.301590 
	C137.753082,70.839020 139.176071,69.376450 140.793564,67.304199 
	C141.142975,66.554237 141.492401,65.804283 142.232193,64.535660 
	C142.322006,60.115604 138.762482,62.898869 136.371689,61.752090 
	C134.894852,61.484119 133.418030,61.216148 131.507370,60.944546 
	C131.507370,60.944546 131.073593,60.938011 130.554504,60.497391 
	C129.043396,59.986385 127.532295,59.475380 125.800972,58.426632 
	C124.867958,58.324078 123.934952,58.221523 122.203735,58.034588 
	C121.135796,57.982197 120.067856,57.929802 118.766075,57.188335 
	C117.054848,56.483444 115.399300,55.552204 113.622208,55.115097 
	C107.739868,53.668247 101.813698,52.399601 96.537743,50.741688 
	C97.477318,49.300575 98.416893,47.859463 99.356468,46.418350 
	C97.311821,45.656570 94.987549,43.879902 93.282249,44.349758 
	C89.994263,45.255692 87.056038,47.431103 83.182137,49.057365 
	C82.127174,49.062454 81.072220,49.067543 79.504311,48.674896 
	C77.285553,48.699852 75.066795,48.724812 72.799561,48.063110 
	C71.598038,44.033955 68.926392,44.629112 65.433075,46.008762 
	C64.866127,45.814945 64.299179,45.621132 63.640236,44.811787 
	C62.439350,44.888554 61.238461,44.965324 59.356415,45.122765 
	C58.914143,45.020893 58.471870,44.919018 57.959831,44.308456 
	C57.642429,43.915401 57.325024,43.522343 56.461277,42.666649 
	C52.940353,41.446510 49.397415,40.285576 45.905716,38.986862 
	C43.276142,38.008812 40.423439,37.264477 38.182957,35.687439 
	C34.265339,32.929893 27.751070,33.995533 25.733009,38.654095 
	C25.184639,40.055157 24.636267,41.456223 23.625040,43.583649 
	C23.428158,44.385437 23.074148,45.184052 23.057898,45.989483 
	C22.802725,58.636452 22.562433,71.284027 22.445383,83.932640 
	C22.438831,84.640495 23.531574,85.358521 24.523691,86.563843 
	C25.667564,86.997681 26.811438,87.431519 27.926979,88.616364 
	C26.999605,90.525314 25.845299,92.360458 25.195059,94.359550 
	C24.060215,97.848518 20.798018,101.412140 25.050661,105.949425 
	C25.082319,121.921951 25.113979,137.894470 24.709085,154.401840 
	C24.841551,155.634384 24.974018,156.866913 25.107248,158.942215 
	C25.170061,160.740540 24.765028,162.748337 25.446236,164.269775 
	C25.974964,165.450684 28.474236,167.035812 29.036278,166.694336 
	C31.578583,165.149734 33.743675,162.984283 36.724792,160.848892 
	C38.118637,159.165253 39.512486,157.481613 41.235771,155.347321 
	C41.964775,154.783859 42.693783,154.220383 44.172989,153.692703 
	C45.409096,152.379623 46.645203,151.066559 48.173119,149.291962 
z"/> -->
<path fill="#EEF1F7" opacity="1.000000" stroke="none" 
	d="
M63.732227,45.427315 
	C64.299179,45.621132 64.866127,45.814945 65.968613,46.210728 
	C67.703880,47.283585 68.903603,48.154476 69.869781,49.140686 
	C69.287437,49.638195 68.938629,50.020378 68.252724,50.469078 
	C66.485733,51.954628 65.055840,53.373665 63.342663,54.926285 
	C61.695404,56.354259 60.331436,57.648651 58.633965,58.974632 
	C57.095173,60.278095 55.889889,61.549965 54.401329,62.889191 
	C53.377972,63.571758 52.637886,64.186974 51.595749,64.851974 
	C51.178356,65.264969 51.063026,65.628181 50.777054,66.279510 
	C47.391869,69.333755 44.177326,72.099861 40.659245,74.827744 
	C40.134029,75.105270 39.912350,75.421036 39.831322,75.805954 
	C39.971973,75.875114 39.703609,75.712395 39.390945,75.810333 
	C37.870182,77.162697 36.662090,78.417130 35.209808,79.747643 
	C34.637634,80.204269 34.309647,80.584808 33.650909,81.004845 
	C32.107162,82.302628 30.894167,83.560928 29.424126,84.913963 
	C28.788446,85.397827 28.409811,85.786949 27.678688,85.979767 
	C27.010715,84.717285 26.424950,83.652168 26.420849,82.584808 
	C26.370493,69.480896 26.387438,56.376564 26.451830,43.272659 
	C26.456991,42.221905 26.940838,41.173508 27.171850,40.246021 
	C35.072540,41.303944 42.578430,42.309002 50.340225,43.438881 
	C51.155777,43.597687 51.715424,43.631664 52.545876,43.925301 
	C54.554314,44.395687 56.291958,44.606419 58.029598,44.817146 
	C58.471870,44.919018 58.914143,45.020893 60.039955,45.253235 
	C61.726410,45.398243 62.729317,45.412781 63.732227,45.427315 
z"/>
<path fill="#293C72" opacity="1.000000" stroke="none" 
	d="
M68.589821,50.402565 
	C68.938629,50.020378 69.287437,49.638195 70.216682,49.172768 
	C71.480759,48.976269 72.164398,48.863018 72.848038,48.749771 
	C75.066795,48.724812 77.285553,48.699852 79.564987,49.075836 
	C79.072372,50.216320 78.519081,50.955864 77.639282,51.820557 
	C72.970299,55.757988 68.609795,59.549957 64.289009,63.386677 
	C54.623566,71.969276 44.977909,80.574165 35.026474,89.304924 
	C32.953274,91.086525 31.177790,92.733185 29.106365,94.554596 
	C28.035187,96.140900 27.259947,97.552460 26.202591,99.160118 
	C25.623634,101.242668 25.326796,103.129112 25.029957,105.015564 
	C20.798018,101.412140 24.060215,97.848518 25.195059,94.359550 
	C25.845299,92.360458 26.999605,90.525314 27.976650,87.961151 
	C28.027941,86.929314 28.029560,86.552696 28.031178,86.176079 
	C28.409811,85.786949 28.788446,85.397827 29.779102,84.913345 
	C31.587969,83.533775 32.784817,82.249565 33.981659,80.965355 
	C34.309647,80.584808 34.637634,80.204269 35.583736,79.796745 
	C37.369102,78.417305 38.536354,77.064850 39.703606,75.712395 
	C39.703609,75.712395 39.971973,75.875114 40.090115,75.739044 
	C40.459766,75.357315 40.711277,75.111649 40.962784,74.865974 
	C44.177326,72.099861 47.391869,69.333755 50.976952,66.116241 
	C51.530926,65.377296 51.714367,65.089745 51.897804,64.802193 
	C52.637886,64.186974 53.377972,63.571758 54.758278,62.897644 
	C56.588154,61.540180 57.777813,60.241615 58.967468,58.943047 
	C60.331436,57.648651 61.695404,56.354259 63.691086,54.948559 
	C65.860847,53.872791 67.398903,52.908333 68.984169,52.275360 
	C69.641190,53.210983 70.250999,53.815121 70.860809,54.419266 
	C71.058105,54.177746 71.255402,53.936230 71.452698,53.694710 
	C70.616432,53.108948 69.780167,52.523186 68.876831,51.548767 
	C68.736450,50.907589 68.663139,50.655079 68.589821,50.402565 
z"/>
<path fill="#B4C1DC" opacity="1.000000" stroke="none" 
	d="
M110.084793,95.046875 
	C109.796745,95.209961 109.508698,95.373055 108.807968,95.898186 
	C106.136520,98.432198 103.877754,100.604172 101.618988,102.776146 
	C101.618988,102.776146 101.295624,102.909630 100.855835,103.141769 
	C95.803284,107.927002 90.522293,108.851357 84.515953,106.482483 
	C82.846962,105.824249 80.985649,105.268883 79.244934,105.351135 
	C78.458237,105.388313 77.750725,107.101303 77.007278,108.054001 
	C76.977806,108.486214 76.948341,108.918434 76.702393,109.672806 
	C76.300278,109.994926 76.114639,109.994896 75.704109,109.772583 
	C75.261040,107.386841 75.042877,105.223373 74.849083,103.301582 
	C70.861389,101.700912 66.896851,100.109535 63.292728,98.445389 
	C65.112869,98.537308 66.572594,98.702011 68.386261,99.003609 
	C70.478127,99.432999 72.216064,99.725494 74.226532,100.263123 
	C76.682564,100.923698 78.866066,101.339119 81.346893,101.901398 
	C82.082024,102.081291 82.519821,102.114334 83.185631,102.312363 
	C83.964218,102.492813 84.514801,102.508278 85.360260,102.680710 
	C86.088654,102.926086 86.522171,103.014488 87.196716,103.331589 
	C88.302002,103.675499 89.166252,103.790710 90.407669,103.995590 
	C93.553505,102.446785 96.322166,100.808296 99.423019,99.094894 
	C101.897125,97.040352 104.039040,95.060730 106.485886,93.017609 
	C107.505547,92.254715 108.220291,91.555321 109.242867,90.723953 
	C111.989967,88.635117 114.429237,86.678261 116.905045,85.136833 
	C116.961983,86.385872 116.982376,87.219475 116.732109,88.237503 
	C114.335899,90.630241 112.210350,92.838554 110.084793,95.046875 
z"/>
<path fill="#4F5F88" opacity="1.000000" stroke="none" 
	d="
M27.678688,85.979767 
	C28.029560,86.552696 28.027941,86.929314 27.990814,87.585648 
	C26.811438,87.431519 25.667564,86.997681 24.325560,85.840439 
	C24.114250,71.030457 24.101074,56.943871 24.087896,42.857285 
	C24.636267,41.456223 25.184639,40.055157 26.343292,38.364090 
	C33.873508,39.254177 40.801598,40.390297 47.703091,41.669853 
	C48.568695,41.830338 49.294006,42.747498 50.084320,43.314060 
	C42.578430,42.309002 35.072540,41.303944 27.171850,40.246021 
	C26.940838,41.173508 26.456991,42.221905 26.451830,43.272659 
	C26.387438,56.376564 26.370493,69.480896 26.420849,82.584808 
	C26.424950,83.652168 27.010715,84.717285 27.678688,85.979767 
z"/>
<path fill="#526487" opacity="1.000000" stroke="none" 
	d="
M126.021187,58.964371 
	C127.532295,59.475380 129.043396,59.986385 130.821625,60.906044 
	C131.372879,61.192524 131.657043,61.070351 131.941193,60.948174 
	C133.418030,61.216148 134.894852,61.484119 136.732666,62.146999 
	C137.072067,62.943966 137.050491,63.346020 136.697586,63.820885 
	C136.041077,64.270416 135.370850,64.755913 135.449463,65.005348 
	C135.822952,66.190201 136.400482,67.310738 136.583664,68.398560 
	C134.550781,69.293617 132.839569,70.244301 131.127441,70.784973 
	C131.439850,64.757462 126.930832,65.123940 123.461281,64.189156 
	C120.257835,63.326065 117.059845,62.442703 114.211212,61.435257 
	C115.722122,60.868008 116.881279,60.433769 118.232285,59.774414 
	C118.616066,58.992001 118.807991,58.434704 118.999916,57.877411 
	C120.067856,57.929802 121.135796,57.982197 122.866898,58.255043 
	C124.360435,58.638454 125.190811,58.801414 126.021187,58.964371 
z"/>
<path fill="#495982" opacity="1.000000" stroke="none" 
	d="
M25.040310,105.482498 
	C25.326796,103.129112 25.623634,101.242668 26.242748,99.628754 
	C26.540354,117.949127 26.515690,135.996964 26.262691,154.057785 
	C25.736441,154.010178 25.440199,153.942245 25.145638,153.867004 
	C25.113979,137.894470 25.082319,121.921951 25.040310,105.482498 
z"/>
<path fill="#ABBEDD" opacity="1.000000" stroke="none" 
	d="
M131.128372,71.194984 
	C132.839569,70.244301 134.550781,69.293617 136.940735,68.296089 
	C138.612686,68.137459 139.605881,68.025665 140.599060,67.913879 
	C139.176071,69.376450 137.753082,70.839020 135.800934,72.618362 
	C134.717010,73.546677 134.162247,74.158218 133.607498,74.769768 
	C133.343658,74.851959 133.113037,74.989746 132.496979,75.455284 
	C131.374344,76.485626 130.670349,77.243828 129.966339,78.002022 
	C128.245972,79.411331 126.525620,80.820648 124.290024,82.588577 
	C121.517448,84.649147 119.260101,86.351112 117.002762,88.053085 
	C116.982376,87.219475 116.961983,86.385872 116.938324,84.952087 
	C116.935059,84.351906 116.979042,83.979179 117.219780,83.882660 
	C117.622414,83.492989 117.784302,83.199837 118.235535,82.768738 
	C119.744263,81.447472 120.963654,80.264153 122.382538,78.997284 
	C122.840523,78.754318 123.011391,78.528595 123.406403,78.140472 
	C124.323196,77.438957 124.928253,76.833527 125.832108,76.132141 
	C126.915321,75.103775 127.699738,74.171356 128.477722,73.208038 
	C128.471283,73.177139 128.532593,73.158516 128.816559,73.150330 
	C129.776459,72.493095 130.452423,71.844040 131.128372,71.194984 
z"/>
<path fill="#25386F" opacity="1.000000" stroke="none" 
	d="
M50.340225,43.438881 
	C49.294006,42.747498 48.568695,41.830338 47.703091,41.669853 
	C40.801598,40.390297 33.873508,39.254177 26.533075,38.094772 
	C27.751070,33.995533 34.265339,32.929893 38.182957,35.687439 
	C40.423439,37.264477 43.276142,38.008812 45.905716,38.986862 
	C49.397415,40.285576 52.940353,41.446510 56.254128,42.885742 
	C54.789673,43.291771 53.532375,43.478710 52.275074,43.665649 
	C51.715424,43.631664 51.155777,43.597687 50.340225,43.438881 
z"/>
<path fill="#3A4E7F" opacity="1.000000" stroke="none" 
	d="
M118.882996,57.532875 
	C118.807991,58.434704 118.616066,58.992001 118.055496,59.425091 
	C107.780792,56.766506 97.874710,54.232121 88.317070,51.517090 
	C91.078453,51.245152 93.491394,51.153862 95.904343,51.062572 
	C101.813698,52.399601 107.739868,53.668247 113.622208,55.115097 
	C115.399300,55.552204 117.054848,56.483444 118.882996,57.532875 
z"/>
<path fill="#293C72" opacity="1.000000" stroke="none" 
	d="
M96.221039,50.902130 
	C93.491394,51.153862 91.078453,51.245152 88.087799,51.596653 
	C87.510094,51.856865 87.030212,51.783886 86.914452,51.507477 
	C85.856728,50.514091 84.914757,49.797123 83.972794,49.080151 
	C87.056038,47.431103 89.994263,45.255692 93.282249,44.349758 
	C94.987549,43.879902 97.311821,45.656570 99.356468,46.418350 
	C98.416893,47.859463 97.477318,49.300575 96.221039,50.902130 
z"/>
<path fill="#495982" opacity="1.000000" stroke="none" 
	d="
M77.377037,108.023773 
	C77.750725,107.101303 78.458237,105.388313 79.244934,105.351135 
	C80.985649,105.268883 82.846962,105.824249 84.515953,106.482483 
	C90.522293,108.851357 95.803284,107.927002 100.740990,103.273712 
	C99.283897,109.674034 92.385925,112.034737 84.851372,109.053932 
	C82.682755,108.195999 80.125732,108.319839 77.377037,108.023773 
z"/>
<path fill="#495982" opacity="1.000000" stroke="none" 
	d="
M75.929008,109.994858 
	C76.114639,109.994896 76.300278,109.994926 76.764366,109.992813 
	C77.175301,115.037766 77.984802,120.187607 77.239136,125.101463 
	C76.568810,129.518829 72.359756,131.440964 67.984299,132.364944 
	C68.279015,131.214081 68.829414,130.365082 69.441986,129.505508 
	C69.504150,129.494949 69.545883,129.373672 69.873459,129.297684 
	C74.653206,126.291367 76.958427,122.382851 75.862244,116.473312 
	C75.916794,114.027672 75.922897,112.011269 75.929008,109.994858 
z"/>
<path fill="#495982" opacity="1.000000" stroke="none" 
	d="
M116.732101,88.237503 
	C119.260101,86.351112 121.517448,84.649147 124.076256,82.849876 
	C123.328133,85.175575 122.908836,88.391479 121.085388,89.840958 
	C118.143692,92.179321 114.277039,93.354080 110.442940,95.033600 
	C112.210350,92.838554 114.335899,90.630241 116.732101,88.237503 
z"/>
<path fill="#1F356C" opacity="1.000000" stroke="none" 
	d="
M23.856468,43.220467 
	C24.101074,56.943871 24.114250,71.030457 24.120045,85.594429 
	C23.531574,85.358521 22.438831,84.640495 22.445383,83.932640 
	C22.562433,71.284027 22.802725,58.636452 23.057898,45.989483 
	C23.074148,45.184052 23.428158,44.385437 23.856468,43.220467 
z"/>
<path fill="#495982" opacity="1.000000" stroke="none" 
	d="
M65.947739,133.859879 
	C64.860397,135.564911 64.100639,137.661484 62.621891,138.898712 
	C58.783028,142.110596 54.627979,144.944550 50.331680,147.649445 
	C50.444695,146.670883 50.825150,145.972198 51.230652,145.273254 
	C51.255695,145.273010 51.261246,145.223190 51.599575,145.177094 
	C54.279980,142.992172 56.622055,140.853348 59.230858,138.555374 
	C61.022392,136.971436 62.547203,135.546646 64.389122,134.114792 
	C65.120064,134.025131 65.533905,133.942505 65.947739,133.859879 
z"/>
<path fill="#495982" opacity="1.000000" stroke="none" 
	d="
M36.044613,161.042419 
	C33.743675,162.984283 31.578583,165.149734 29.036278,166.694336 
	C28.474236,167.035812 25.974964,165.450684 25.446236,164.269775 
	C24.765028,162.748337 25.170061,160.740540 25.335083,158.475983 
	C25.562916,158.009750 26.022610,157.923950 26.022610,157.923950 
	C26.022610,157.923950 26.489136,157.956314 26.550686,158.381851 
	C26.703985,160.525040 26.795738,162.242691 26.948809,164.303558 
	C27.394970,164.865387 27.779812,165.084000 28.516008,165.288605 
	C31.033442,163.641846 33.199520,162.009064 35.535294,160.542877 
	C35.704983,160.709473 36.044613,161.042419 36.044613,161.042419 
z"/>
<path fill="#3A4E7F" opacity="1.000000" stroke="none" 
	d="
M83.577469,49.068756 
	C84.914757,49.797123 85.856728,50.514091 86.461311,51.541855 
	C83.404549,51.800236 80.685165,51.747822 77.965782,51.695408 
	C78.519081,50.955864 79.072372,50.216320 79.821465,49.274704 
	C81.072220,49.067543 82.127174,49.062454 83.577469,49.068756 
z"/>
<path fill="#4F5F88" opacity="1.000000" stroke="none" 
	d="
M72.823799,48.406441 
	C72.164398,48.863018 71.480759,48.976269 70.450226,49.057442 
	C68.903603,48.154476 67.703880,47.283585 66.270004,46.162766 
	C68.926392,44.629112 71.598038,44.033955 72.823799,48.406441 
z"/>
<path fill="#495982" opacity="1.000000" stroke="none" 
	d="
M101.988045,102.773727 
	C103.877754,100.604172 106.136520,98.432198 108.704422,96.129608 
	C106.794739,98.256432 104.575920,100.513878 101.988045,102.773727 
z"/>
<path fill="#D7E5F5" opacity="1.000000" stroke="none" 
	d="
M140.696320,67.609039 
	C139.605881,68.025665 138.612686,68.137459 137.262421,68.351715 
	C136.400482,67.310738 135.822952,66.190201 135.449463,65.005348 
	C135.370850,64.755913 136.041077,64.270416 137.050385,63.911495 
	C139.103607,64.304306 140.472717,64.679314 141.841812,65.054321 
	C141.492401,65.804283 141.142975,66.554237 140.696320,67.609039 
z"/>
<path fill="#B4C1DC" opacity="1.000000" stroke="none" 
	d="
M43.422787,153.656921 
	C42.693783,154.220383 41.964775,154.783859 40.789612,155.621521 
	C39.815201,156.067108 39.286945,156.238480 38.782265,156.082214 
	C40.996922,153.988632 43.188007,152.222687 45.307533,150.765961 
	C44.631573,151.935760 44.027180,152.796341 43.422787,153.656921 
z"/>
<path fill="#495982" opacity="1.000000" stroke="none" 
	d="
M38.758690,156.409866 
	C39.286945,156.238480 39.815201,156.067108 40.624893,155.846863 
	C39.512486,157.481613 38.118637,159.165253 36.384705,160.945648 
	C36.044613,161.042419 35.704983,160.709473 35.688568,160.305511 
	C35.895130,159.398941 36.118107,158.896332 36.605377,158.225647 
	C37.499344,157.508347 38.129017,156.959106 38.758690,156.409866 
z"/>
<path fill="#3A4E7F" opacity="1.000000" stroke="none" 
	d="
M142.037003,64.794991 
	C140.472717,64.679314 139.103607,64.304306 137.381714,63.838688 
	C137.050491,63.346020 137.072067,62.943966 137.097229,62.238960 
	C138.762482,62.898869 142.322006,60.115604 142.037003,64.794991 
z"/>
<path fill="#B4C1DC" opacity="1.000000" stroke="none" 
	d="
M66.093918,133.654968 
	C65.533905,133.942505 65.120064,134.025131 64.432869,133.772202 
	C65.899612,132.129807 67.639717,130.822937 69.379822,129.516068 
	C68.829414,130.365082 68.279015,131.214081 67.609451,132.348236 
	C67.073563,132.905609 66.656830,133.177826 66.093918,133.654968 
z"/>
<path fill="#B4C1DC" opacity="1.000000" stroke="none" 
	d="
M51.205601,145.273514 
	C50.825150,145.972198 50.444695,146.670883 49.967190,147.657562 
	C49.304466,148.394363 48.738792,148.843155 47.712540,149.574158 
	C46.836269,149.913696 46.420578,149.971039 46.047462,149.688263 
	C47.795227,147.989929 49.500412,146.631714 51.205601,145.273514 
z"/>
<path fill="#293C72" opacity="1.000000" stroke="none" 
	d="
M26.489136,157.956314 
	C26.489136,157.956314 26.022610,157.923950 26.022610,157.923950 
	C26.022610,157.923950 25.562916,158.009750 25.334702,158.054596 
	C24.974018,156.866913 24.841551,155.634384 24.927361,154.134430 
	C25.440199,153.942245 25.736441,154.010178 26.252457,154.448822 
	C26.476749,155.870026 26.482943,156.913162 26.489136,157.956314 
z"/>
<path fill="#495982" opacity="1.000000" stroke="none" 
	d="
M46.004883,150.028381 
	C46.420578,149.971039 46.836269,149.913696 47.566635,149.804901 
	C46.645203,151.066559 45.409096,152.379623 43.797890,153.674805 
	C44.027180,152.796341 44.631573,151.935760 45.479942,150.682678 
	C45.723915,150.290176 46.004883,150.028381 46.004883,150.028381 
z"/>
<path fill="#4F5F88" opacity="1.000000" stroke="none" 
	d="
M52.545876,43.925304 
	C53.532375,43.478710 54.789673,43.291771 56.527298,43.117058 
	C57.325024,43.522343 57.642429,43.915401 57.994713,44.562801 
	C56.291958,44.606419 54.554314,44.395687 52.545876,43.925304 
z"/>
<path fill="#4F5F88" opacity="1.000000" stroke="none" 
	d="
M63.686234,45.119553 
	C62.729317,45.412781 61.726410,45.398243 60.380539,45.212898 
	C61.238461,44.965324 62.439350,44.888554 63.686234,45.119553 
z"/>
<path fill="#3A4E7F" opacity="1.000000" stroke="none" 
	d="
M125.911079,58.695503 
	C125.190811,58.801414 124.360435,58.638454 123.265999,58.297234 
	C123.934952,58.221523 124.867958,58.324078 125.911079,58.695503 
z"/>
<path fill="#485D82" opacity="1.000000" stroke="none" 
	d="
M130.319382,77.981316 
	C130.670349,77.243828 131.374344,76.485626 132.372162,75.615288 
	C132.001450,76.322296 131.336929,77.141449 130.319382,77.981316 
z"/>
<path fill="#485D82" opacity="1.000000" stroke="none" 
	d="
M133.944672,74.737183 
	C134.162247,74.158218 134.717010,73.546677 135.587128,72.869156 
	C135.362274,73.436981 134.822052,74.070793 133.944672,74.737183 
z"/>
<path fill="#3A4E7F" opacity="1.000000" stroke="none" 
	d="
M131.724274,60.946358 
	C131.657043,61.070351 131.372879,61.192524 131.081161,61.126354 
	C131.073593,60.938011 131.507370,60.944546 131.724274,60.946358 
z"/>
<path fill="#4F5F88" opacity="1.000000" stroke="none" 
	d="
M68.252724,50.469078 
	C68.663139,50.655079 68.736450,50.907589 68.904495,51.579800 
	C68.999245,51.999496 68.936958,51.943878 68.936958,51.943878 
	C67.398903,52.908333 65.860847,53.872791 63.974373,54.814976 
	C65.055840,53.373665 66.485733,51.954628 68.252724,50.469078 
z"/>
<path fill="#4F5F88" opacity="1.000000" stroke="none" 
	d="
M39.390942,75.810333 
	C38.536354,77.064850 37.369102,78.417305 35.827927,79.720665 
	C36.662090,78.417130 37.870182,77.162697 39.390942,75.810333 
z"/>
<path fill="#4F5F88" opacity="1.000000" stroke="none" 
	d="
M33.650909,81.004845 
	C32.784817,82.249565 31.587969,83.533775 30.036148,84.818604 
	C30.894167,83.560928 32.107162,82.302628 33.650909,81.004845 
z"/>
<path fill="#4F5F88" opacity="1.000000" stroke="none" 
	d="
M58.633965,58.974632 
	C57.777813,60.241615 56.588154,61.540180 55.041550,62.830292 
	C55.889889,61.549965 57.095173,60.278095 58.633965,58.974632 
z"/>
<path fill="#4F5F88" opacity="1.000000" stroke="none" 
	d="
M51.595749,64.851974 
	C51.714367,65.089745 51.530926,65.377296 51.147591,65.828117 
	C51.063026,65.628181 51.178356,65.264969 51.595749,64.851974 
z"/>
<path fill="#4F5F88" opacity="1.000000" stroke="none" 
	d="
M40.659245,74.827744 
	C40.711277,75.111649 40.459766,75.357315 39.949463,75.669891 
	C39.912350,75.421036 40.134029,75.105270 40.659245,74.827744 
z"/>
<path fill="#B3C2DD" opacity="1.000000" stroke="none" 
	d="
M77.639282,51.820557 
	C80.685165,51.747822 83.404549,51.800236 86.577072,51.818268 
	C87.030212,51.783886 87.510094,51.856865 87.739365,51.777298 
	C97.874710,54.232121 107.780792,56.766506 117.863647,59.650211 
	C116.881279,60.433769 115.722122,60.868008 113.856201,61.349251 
	C112.423897,61.301453 111.698364,61.206650 110.807602,60.789848 
	C109.038773,60.218498 107.435165,59.969147 105.456635,59.621025 
	C104.056862,59.384899 103.032005,59.247536 101.760498,58.831863 
	C99.301765,58.143360 97.089699,57.733166 94.598969,57.274368 
	C93.587456,57.061836 92.854607,56.897907 91.717682,56.549271 
	C90.134628,56.263119 88.955673,56.161667 87.526802,55.853958 
	C86.211121,55.485367 85.145340,55.323025 83.663361,55.068588 
	C81.839958,55.080040 80.432755,55.183586 78.725464,55.326607 
	C78.095604,55.873306 77.765839,56.380527 77.176483,56.975624 
	C76.339745,57.740002 75.762596,58.416508 74.905731,59.273811 
	C72.790550,61.046680 70.955086,62.638752 68.834549,64.332954 
	C67.745796,65.314659 66.942116,66.194237 65.890152,67.218246 
	C65.073570,67.870995 64.505272,68.379303 63.616844,68.976372 
	C62.062798,70.310043 60.828884,71.554947 59.298615,72.913307 
	C57.300938,74.612640 55.599613,76.198524 53.586472,77.859093 
	C52.401932,78.818520 51.529217,79.703262 50.644318,80.604034 
	C50.632130,80.620064 50.600761,80.645317 50.307335,80.734406 
	C49.312302,81.533684 48.610699,82.243881 47.631279,83.123161 
	C47.050652,83.831596 46.747837,84.370941 46.470787,84.933762 
	C46.496552,84.957245 46.430141,84.967171 46.202644,84.862801 
	C45.613384,85.070702 45.251617,85.382973 44.565010,85.812050 
	C42.311565,87.615593 40.382965,89.302338 38.092964,90.922897 
	C36.929108,90.294464 36.126648,89.732216 35.324188,89.169975 
	C44.977909,80.574165 54.623566,71.969276 64.289009,63.386677 
	C68.609795,59.549957 72.970299,55.757988 77.639282,51.820557 
z"/>
<path fill="#B4C1DC" opacity="1.000000" stroke="none" 
	d="
M26.550686,158.381851 
	C26.482943,156.913162 26.476749,155.870026 26.480789,154.435822 
	C26.515690,135.996964 26.540354,117.949127 26.524864,99.432663 
	C27.259947,97.552460 28.035187,96.140900 29.281811,94.738876 
	C29.872210,94.868843 29.991224,94.989281 29.956991,95.496635 
	C29.417549,97.984688 28.705118,100.084435 28.696175,102.187172 
	C28.616320,120.960014 28.650114,139.733414 28.692368,158.506531 
	C28.695108,159.725006 29.043879,160.942703 29.256905,162.324295 
	C31.902374,160.856491 34.121731,159.625107 36.341084,158.393723 
	C36.118107,158.896332 35.895130,159.398941 35.518879,160.138916 
	C33.199520,162.009064 31.033442,163.641846 28.324646,165.042191 
	C27.483784,164.526627 27.185635,164.243484 26.887487,163.960342 
	C26.795738,162.242691 26.703985,160.525040 26.550686,158.381851 
z"/>
<path fill="#B4C1DC" opacity="1.000000" stroke="none" 
	d="
M35.026474,89.304924 
	C36.126648,89.732216 36.929108,90.294464 38.184212,91.318771 
	C41.746830,92.591522 44.856800,93.402222 48.184631,94.347916 
	C49.579319,94.707367 50.756142,94.931831 52.211700,95.387947 
	C55.004845,96.423019 57.519249,97.226440 59.731400,98.207741 
	C52.676888,97.049622 45.775204,96.198807 39.232109,94.183662 
	C35.680416,93.089821 32.968513,92.855003 30.110239,95.109718 
	C29.991224,94.989281 29.872210,94.868843 29.577749,94.564133 
	C31.177790,92.733185 32.953274,91.086525 35.026474,89.304924 
z"/>
<path fill="#233B77" opacity="1.000000" stroke="none" 
	d="
M68.971573,51.968460 
	C69.780167,52.523186 70.616432,53.108948 71.452698,53.694710 
	C71.255402,53.936230 71.058105,54.177746 70.860809,54.419266 
	C70.250999,53.815121 69.641190,53.210983 68.984169,52.275360 
	C68.936958,51.943878 68.999245,51.999496 68.971573,51.968460 
z"/>
<path fill="#253C76" opacity="1.000000" stroke="none" 
	d="
M51.932964,95.156281 
	C50.756142,94.931831 49.579319,94.707367 48.082500,93.996613 
	C46.804955,90.905289 45.847404,88.300270 44.889854,85.695251 
	C45.251617,85.382973 45.613384,85.070702 46.290321,84.879333 
	C46.605492,85.000229 46.772900,84.898483 46.772900,84.898483 
	C46.772900,84.898483 46.445019,84.910286 46.445023,84.910286 
	C46.747837,84.370941 47.050652,83.831596 47.975113,83.106392 
	C49.264763,82.162125 49.932762,81.403717 50.600761,80.645317 
	C50.600761,80.645317 50.632130,80.620064 51.011398,80.639664 
	C52.226543,79.700981 53.062416,78.742691 53.898293,77.784409 
	C55.599613,76.198524 57.300938,74.612640 59.661243,72.907578 
	C61.525810,71.488136 62.731392,70.187874 63.936974,68.887611 
	C64.505272,68.379303 65.073570,67.870995 66.222061,67.194946 
	C67.574699,66.095078 68.347160,65.162949 69.119621,64.230820 
	C70.955086,62.638752 72.790550,61.046680 75.274246,59.236683 
	C78.641502,57.732735 81.360535,56.446712 84.079567,55.160690 
	C85.145340,55.323025 86.211121,55.485367 87.446152,56.086754 
	C89.117531,56.595196 90.619644,56.664585 92.121765,56.733974 
	C92.854607,56.897907 93.587456,57.061836 94.781723,57.547825 
	C97.497826,58.283314 99.752487,58.696743 102.007156,59.110172 
	C103.032005,59.247536 104.056862,59.384899 105.637413,59.853680 
	C107.786354,60.494015 109.379585,60.802933 110.972824,61.111851 
	C111.698364,61.206650 112.423897,61.301453 113.504440,61.482262 
	C117.059845,62.442703 120.257835,63.326065 123.461281,64.189156 
	C126.930832,65.123940 131.439850,64.757462 131.127441,70.784973 
	C130.452423,71.844040 129.776459,72.493095 128.716919,73.099571 
	C128.333328,73.056999 128.091537,73.128624 128.091537,73.128624 
	C128.091537,73.128624 128.484146,73.238937 128.484146,73.238937 
	C127.699738,74.171356 126.915321,75.103775 125.476120,76.157654 
	C124.245766,76.931587 123.670204,77.584068 123.094650,78.236557 
	C123.011391,78.528595 122.840523,78.754318 122.012039,78.999466 
	C120.276756,80.359032 119.111473,81.632858 117.946198,82.906677 
	C117.784302,83.199837 117.622414,83.492989 116.860504,83.908394 
	C113.818665,86.305740 111.376854,88.580841 108.935043,90.855942 
	C108.220291,91.555321 107.505547,92.254715 106.112122,93.018021 
	C102.047821,93.786606 99.606262,95.474854 99.090820,99.169815 
	C96.322166,100.808296 93.553505,102.446785 90.300079,103.721130 
	C88.862114,103.272278 87.908897,103.187584 86.955688,103.102890 
	C86.522171,103.014488 86.088654,102.926086 85.262741,102.469086 
	C84.232780,102.116112 83.595200,102.131737 82.957626,102.147369 
	C82.519821,102.114334 82.082024,102.081291 81.214493,101.590355 
	C78.507835,100.760963 76.230919,100.389473 73.953995,100.017982 
	C72.216064,99.725494 70.478127,99.432999 68.252747,98.676941 
	C62.749371,95.839989 57.763145,93.312752 51.932964,95.156281 
z"/>
<path fill="#FCFDFD" opacity="1.000000" stroke="none" 
	d="
M29.956991,95.496635 
	C32.968513,92.855003 35.680416,93.089821 39.232109,94.183662 
	C45.775204,96.198807 52.676888,97.049622 60.098434,98.228706 
	C61.489254,98.220581 62.210785,98.369377 62.932316,98.518173 
	C66.896851,100.109535 70.861389,101.700912 74.849083,103.301582 
	C75.042877,105.223373 75.261040,107.386841 75.704109,109.772583 
	C75.922897,112.011269 75.916794,114.027672 75.563965,116.648087 
	C73.326790,121.292625 71.436333,125.333145 69.545883,129.373672 
	C69.545883,129.373672 69.504150,129.494949 69.441986,129.505508 
	C67.639717,130.822937 65.899612,132.129807 64.115761,133.779251 
	C62.547203,135.546646 61.022392,136.971436 58.976093,138.443863 
	C56.056816,140.735382 53.659027,142.979279 51.261242,145.223190 
	C51.261246,145.223190 51.255695,145.273010 51.230644,145.273254 
	C49.500412,146.631714 47.795227,147.989929 46.047462,149.688263 
	C46.004883,150.028381 45.723915,150.290176 45.551506,150.373459 
	C43.188007,152.222687 40.996922,153.988632 38.782265,156.082214 
	C38.129017,156.959106 37.499344,157.508347 36.605377,158.225647 
	C34.121731,159.625107 31.902374,160.856491 29.256905,162.324295 
	C29.043879,160.942703 28.695108,159.725006 28.692368,158.506531 
	C28.650114,139.733414 28.616320,120.960014 28.696175,102.187172 
	C28.705118,100.084435 29.417549,97.984688 29.956991,95.496635 
z"/>
<path fill="#3F517B" opacity="1.000000" stroke="none" 
	d="
M63.292728,98.445389 
	C62.210785,98.369377 61.489254,98.220581 60.400688,98.050819 
	C57.519249,97.226440 55.004845,96.423019 52.211700,95.387939 
	C57.763145,93.312752 62.749371,95.839989 67.898811,98.540039 
	C66.572594,98.702011 65.112869,98.537308 63.292728,98.445389 
z"/>
<path fill="#3F517B" opacity="1.000000" stroke="none" 
	d="
M109.242874,90.723953 
	C111.376854,88.580841 113.818665,86.305740 116.619766,84.004913 
	C116.979042,83.979179 116.935059,84.351906 116.901779,84.536652 
	C114.429237,86.678261 111.989967,88.635117 109.242874,90.723953 
z"/>
<path fill="#3F517B" opacity="1.000000" stroke="none" 
	d="
M99.423019,99.094894 
	C99.606262,95.474854 102.047821,93.786606 105.807205,93.081528 
	C104.039040,95.060730 101.897125,97.040352 99.423019,99.094894 
z"/>
<path fill="#3F517B" opacity="1.000000" stroke="none" 
	d="
M74.226532,100.263123 
	C76.230919,100.389473 78.507835,100.760963 80.917168,101.443497 
	C78.866066,101.339119 76.682564,100.923698 74.226532,100.263123 
z"/>
<path fill="#3F517B" opacity="1.000000" stroke="none" 
	d="
M87.196716,103.331589 
	C87.908897,103.187584 88.862114,103.272278 89.922913,103.631447 
	C89.166252,103.790710 88.302002,103.675499 87.196716,103.331589 
z"/>
<path fill="#3F517B" opacity="1.000000" stroke="none" 
	d="
M83.185631,102.312363 
	C83.595200,102.131737 84.232780,102.116112 84.967865,102.312119 
	C84.514801,102.508278 83.964218,102.492813 83.185631,102.312363 
z"/>
<path fill="#3F517B" opacity="1.000000" stroke="none" 
	d="
M118.235535,82.768738 
	C119.111473,81.632858 120.276756,80.359032 121.812546,79.083023 
	C120.963654,80.264153 119.744263,81.447472 118.235535,82.768738 
z"/>
<path fill="#3F517B" opacity="1.000000" stroke="none" 
	d="
M123.406403,78.140472 
	C123.670204,77.584068 124.245766,76.931587 125.177315,76.253601 
	C124.928253,76.833527 124.323196,77.438957 123.406403,78.140472 
z"/>
<path fill="#B4C1DC" opacity="1.000000" stroke="none" 
	d="
M69.873459,129.297684 
	C71.436333,125.333145 73.326790,121.292625 75.515518,117.077316 
	C76.958427,122.382851 74.653206,126.291367 69.873459,129.297684 
z"/>
<path fill="#B4C1DC" opacity="1.000000" stroke="none" 
	d="
M51.599571,145.177094 
	C53.659027,142.979279 56.056816,140.735382 58.709366,138.602997 
	C56.622055,140.853348 54.279980,142.992172 51.599571,145.177094 
z"/>
<path fill="#B3C2DD" opacity="1.000000" stroke="none" 
	d="
M26.948805,164.303558 
	C27.185635,164.243484 27.483784,164.526627 27.973293,165.056183 
	C27.779812,165.084000 27.394970,164.865387 26.948805,164.303558 
z"/>
<path fill="#3F517B" opacity="1.000000" stroke="none" 
	d="
M44.565010,85.812050 
	C45.847404,88.300270 46.804955,90.905289 47.864635,93.861618 
	C44.856800,93.402222 41.746830,92.591522 38.545612,91.384964 
	C40.382965,89.302338 42.311565,87.615593 44.565010,85.812050 
z"/>
<path fill="#495C82" opacity="1.000000" stroke="none" 
	d="
M83.663361,55.068596 
	C81.360535,56.446712 78.641502,57.732735 75.553963,59.055885 
	C75.762596,58.416508 76.339745,57.740002 77.448196,56.856270 
	C78.328186,56.195072 78.676872,55.741104 79.025558,55.287132 
	C80.432755,55.183586 81.839958,55.080040 83.663361,55.068596 
z"/>
<path fill="#526487" opacity="1.000000" stroke="none" 
	d="
M101.760498,58.831863 
	C99.752487,58.696743 97.497826,58.283314 95.060394,57.596428 
	C97.089699,57.733166 99.301765,58.143360 101.760498,58.831863 
z"/>
<path fill="#495C82" opacity="1.000000" stroke="none" 
	d="
M91.717682,56.549271 
	C90.619644,56.664585 89.117531,56.595196 87.696060,56.293007 
	C88.955673,56.161667 90.134628,56.263119 91.717682,56.549271 
z"/>
<path fill="#526487" opacity="1.000000" stroke="none" 
	d="
M110.807602,60.789848 
	C109.379585,60.802933 107.786354,60.494015 106.012329,59.952446 
	C107.435165,59.969147 109.038773,60.218498 110.807602,60.789848 
z"/>
<path fill="#495C82" opacity="1.000000" stroke="none" 
	d="
M63.616844,68.976372 
	C62.731392,70.187874 61.525810,71.488136 59.957600,72.794128 
	C60.828884,71.554947 62.062798,70.310043 63.616844,68.976372 
z"/>
<path fill="#495C82" opacity="1.000000" stroke="none" 
	d="
M53.586472,77.859093 
	C53.062416,78.742691 52.226543,79.700981 51.023582,80.623627 
	C51.529217,79.703262 52.401932,78.818520 53.586472,77.859093 
z"/>
<path fill="#495C82" opacity="1.000000" stroke="none" 
	d="
M68.834549,64.332954 
	C68.347160,65.162949 67.574699,66.095078 66.470337,67.050507 
	C66.942116,66.194237 67.745796,65.314659 68.834549,64.332954 
z"/>
<path fill="#495C82" opacity="1.000000" stroke="none" 
	d="
M50.307335,80.734406 
	C49.932762,81.403717 49.264763,82.162125 48.252930,82.937302 
	C48.610699,82.243881 49.312302,81.533684 50.307335,80.734406 
z"/>
<path fill="#526487" opacity="1.000000" stroke="none" 
	d="
M78.725464,55.326607 
	C78.676872,55.741104 78.328186,56.195072 77.707787,56.768394 
	C77.765839,56.380527 78.095604,55.873306 78.725464,55.326607 
z"/>
<path fill="#3F517B" opacity="1.000000" stroke="none" 
	d="
M128.477722,73.208038 
	C128.484146,73.238937 128.091537,73.128624 128.091537,73.128624 
	C128.091537,73.128624 128.333328,73.056999 128.432953,73.107758 
	C128.532593,73.158516 128.471283,73.177139 128.477722,73.208038 
z"/>
<path fill="#495C82" opacity="1.000000" stroke="none" 
	d="
M46.470787,84.933762 
	C46.445019,84.910286 46.772900,84.898483 46.772900,84.898483 
	C46.772900,84.898483 46.605492,85.000229 46.517815,84.983704 
	C46.430141,84.967171 46.496552,84.957245 46.470787,84.933762 
z"/>
</svg>